<?xml version="1.0" encoding="utf-8"?>
<!-- Generator: Adobe Illustrator 16.0.0, SVG Export Plug-In . SVG Version: 6.00 Build 0)  -->
<!DOCTYPE svg PUBLIC "-//W3C//DTD SVG 1.1//EN" "http://www.w3.org/Graphics/SVG/1.1/DTD/svg11.dtd">
<svg version="1.1" id="Layer_1" xmlns="http://www.w3.org/2000/svg" xmlns:xlink="http://www.w3.org/1999/xlink" x="0px" y="0px"
	 width="560.739px" height="130.569px" viewBox="-22 21.525 560.739 130.569" enable-background="new -22 21.525 560.739 130.569"
	 xml:space="preserve">
<g>
	<path d="M70.605,90.932c10.278-3.561,50.279-19.586,35.968-24.594c-5.7-1.998-10.265-3.027-13.839-3.534
		c0.017-0.011,0.032-0.024,0.05-0.033c0.295-12.923-6.266-21.817-17.066-26.281c-14.213-5.875-30.591,1.121-36.585,15.623
		c-5.384,13.028-0.531,27.654,10.81,34.756c-11.034,7.646-24.759,9.938-37.117,4.832C3.248,87.742-3.758,80.035-7.58,70.629
		c-4.506,4.394-8.225,9.743-10.786,15.938c-10.021,24.247,1.394,51.988,25.502,61.952c24.108,9.967,51.777-1.624,61.798-25.869
		C73.268,112.155,73.586,101.012,70.605,90.932L70.605,90.932z"/>
</g>
<g enable-background="new    ">
	<path d="M202.335,98.558l34.983,50.885h-32.863l-20.672-30.919l-8.657,9.364v21.555h-26.855V21.525h26.855v69.613l26.679-29.506
		h34.806L202.335,98.558z"/>
	<path d="M240.146,149.442V21.525h26.855v127.917H240.146z"/>
	<path d="M360.642,124.177c-4.24,15.194-18.198,27.916-40.46,27.916c-24.205,0-45.76-17.315-45.76-46.82
		c0-28.27,21.024-46.291,43.816-46.291c27.209,0,43.994,16.785,43.994,45.054c0,3.71-0.354,7.774-0.53,8.304h-61.132
		c0.53,9.895,9.541,16.962,19.965,16.962c9.718,0,15.194-4.594,17.668-11.484L360.642,124.177z M336.26,95.024
		c-0.354-6.714-4.947-14.841-17.668-14.841c-11.308,0-16.961,8.304-17.491,14.841H336.26z"/>
	<path d="M390.326,98.734l20.671-3.18c4.771-0.707,6.361-3.004,6.361-6.008c0-5.123-4.417-9.541-12.898-9.541
		c-9.363,0-14.487,6.361-15.018,12.898l-23.322-4.771c1.061-12.544,12.722-29.152,38.517-29.152c28.446,0,38.87,15.901,38.87,33.923
		v42.934c0,6.891,0.884,12.721,1.061,13.604h-24.206c-0.177-0.707-0.883-3.887-0.883-9.895
		c-4.594,7.421-13.074,12.368-24.735,12.368c-19.259,0-30.39-12.721-30.39-26.679C364.353,109.689,375.837,100.854,390.326,98.734z
		 M417.358,114.989v-3.887l-16.608,2.65c-5.653,0.883-9.895,3.533-9.895,9.717c0,4.594,3.004,9.012,10.425,9.012
		C409.23,132.481,417.358,128.594,417.358,114.989z"/>
	<path d="M483.084,149.442h-26.855V61.632h25.972v10.071c4.771-8.304,15.548-12.368,24.559-12.368
		c22.086,0,31.979,15.725,31.979,34.982v55.125h-26.855V98.911c0-8.657-4.594-15.194-14.312-15.194
		c-8.834,0-14.487,6.537-14.487,15.371V149.442z"/>
</g>
</svg>
